<svg xmlns="http://www.w3.org/2000/svg" width="768" height="640" viewBox="0 0 768 640">
  <defs>
    <style>
      .cls-1 {
        fill: #333;
      }

      .cls-2 {
        fill: #00d16c;
      }
    </style>
  </defs>
  <title>Asset 5</title>
  <g id="Layer_2" data-name="Layer 2">
    <g id="Layer_1-2" data-name="Layer 1">
      <g>
        <path class="cls-1" d="M704,16a48.05,48.05,0,0,1,48,48V576a48.05,48.05,0,0,1-48,48H64a48.05,48.05,0,0,1-48-48V64A48.05,48.05,0,0,1,64,16H704m0-16H64A64,64,0,0,0,0,64V576a64,64,0,0,0,64,64H704a64,64,0,0,0,64-64V64A64,64,0,0,0,704,0Z"/>
        <circle class="cls-2" cx="663.71" cy="521.23" r="23.75"/>
        <g>
          <path class="cls-1" d="M96.82,542.05V355.36h20.32V523.77h70.62v18.28Z"/>
          <path class="cls-1" d="M266.48,544.09q-15.75,0-27.18-6.61a44,44,0,0,1-16.25-16.25q-6.87-11.94-6.86-28.71V404.89q0-16.75,6.86-28.7a44,44,0,0,1,16.25-16.25q11.43-6.62,27.18-6.61t27.18,6.61a44,44,0,0,1,16.25,16.25q6.87,11.94,6.86,28.7v87.63q0,16.77-6.86,28.71a44,44,0,0,1-16.25,16.25Q282.23,544.1,266.48,544.09Zm0-18.29A30.43,30.43,0,0,0,282,522a27.68,27.68,0,0,0,9.91-9.91q4.58-8.13,4.57-19.56V404.89q0-11.43-4.57-19.55a27.76,27.76,0,0,0-9.91-9.91,33.39,33.39,0,0,0-31,0,27.76,27.76,0,0,0-9.91,9.91q-4.58,8.13-4.57,19.55v87.63q0,11.43,4.57,19.56A27.68,27.68,0,0,0,251,522,30.43,30.43,0,0,0,266.48,525.8Z"/>
          <path class="cls-1" d="M396.5,544.09q-16,0-27.18-6.61a44.62,44.62,0,0,1-16.26-16q-6.85-12.19-6.86-29V404.89q0-16.75,6.86-28.95a44.62,44.62,0,0,1,16.26-16q11.18-6.62,27.18-6.61,15.74,0,27.17,6.61a42.16,42.16,0,0,1,16,16.25A46.63,46.63,0,0,1,446,394.73l-19.82,3.56a34.3,34.3,0,0,0-4.31-12.7A27.26,27.26,0,0,0,412,375.43a33.41,33.41,0,0,0-31,0,27.81,27.81,0,0,0-9.9,9.91q-4.58,8.13-4.58,19.55v87.63q0,11.43,4.58,19.56A27.73,27.73,0,0,0,381,522a33.41,33.41,0,0,0,31,0,27.26,27.26,0,0,0,9.91-10.16,34.24,34.24,0,0,0,4.31-12.7L446,502.68a46.62,46.62,0,0,1-6.35,18.55,42.16,42.16,0,0,1-16,16.25Q412.24,544.1,396.5,544.09Z"/>
          <path class="cls-1" d="M473.25,542.05V355.36h20.32v86.36q29-32,44.71-58.92,10.15-17.78,10.16-27.44h21.33q0,11.43-12.19,32.52a315.32,315.32,0,0,1-26.16,38.35q40.38,86.36,40.38,115.82H551.48q0-25.65-33.78-98.8-11.18,12.94-24.13,26.67v72.13Z"/>
        </g>
        <g>
          <path class="cls-1" d="M142.46,287.09q-16,0-27.17-6.61a44.54,44.54,0,0,1-16.26-16q-6.86-12.19-6.86-29V147.89q0-16.75,6.86-28.95a44.54,44.54,0,0,1,16.26-16q11.17-6.61,27.17-6.61,15.75,0,27.18,6.61a42.14,42.14,0,0,1,16,16.25A46.48,46.48,0,0,1,192,137.73l-19.81,3.56a34.31,34.31,0,0,0-4.32-12.7,27.23,27.23,0,0,0-9.9-10.16,30.5,30.5,0,0,0-15.5-3.81A30.43,30.43,0,0,0,127,118.43a27.76,27.76,0,0,0-9.91,9.91q-4.56,8.13-4.57,19.55v87.63q0,11.43,4.57,19.56A27.76,27.76,0,0,0,127,265a30.43,30.43,0,0,0,15.49,3.81A30.5,30.5,0,0,0,158,265a27.23,27.23,0,0,0,9.9-10.16,34.25,34.25,0,0,0,4.32-12.7L192,245.68a46.47,46.47,0,0,1-6.35,18.55,42.14,42.14,0,0,1-16,16.25Q158.21,287.09,142.46,287.09Z"/>
          <path class="cls-1" d="M222.22,286.05V267.26q0-50.55,38.1-167.9h20.32q38.1,117.36,38.1,167.9v18.79H298.42V267.26A237.53,237.53,0,0,0,296.13,237h-51.3a237.53,237.53,0,0,0-2.29,30.23v18.79Zm71.12-67.31q-6.85-39.11-22.86-96.26-16,57.15-22.86,96.26Z"/>
          <path class="cls-1" d="M354.05,286.05V99.36h44.7q15.24,0,26.67,6.35a49.12,49.12,0,0,1,16.26,16.51q7.1,12.71,7.11,30.48t-7.11,30.23a46.14,46.14,0,0,1-16.26,16.51Q414,206,398.75,206H374.37v80Zm44.7-98.29a26.85,26.85,0,0,0,24.89-14q4.83-8.64,4.83-21.09t-4.83-21.08a26.85,26.85,0,0,0-24.89-14H374.37v70.11Z"/>
          <path class="cls-1" d="M519.75,289.09q-16.77,0-28.7-6.86a38.64,38.64,0,0,1-14.73-14.61A39.27,39.27,0,0,1,471,247.68l20.07-2.79v1.78a22.61,22.61,0,0,0,3.05,11.43,22.94,22.94,0,0,0,8.89,8.63q6.86,4.06,16.76,4.07,9.15,0,15.49-3.81a25.53,25.53,0,0,0,9.4-9.15,32,32,0,0,0,3.81-15.36,33.13,33.13,0,0,0-4.57-16.39q-6.35-10.9-27.18-22.6-28.19-16.26-37.08-31.75a52.31,52.31,0,0,1-7.37-26.67,49,49,0,0,1,6.35-24.64,42,42,0,0,1,15.75-15.49q11.17-6.61,26.92-6.61,16.77,0,28.71,6.86a38.82,38.82,0,0,1,14.73,14.6A39.41,39.41,0,0,1,570,139.73L550,142.53v-1.78a22.71,22.71,0,0,0-3.05-11.43,23,23,0,0,0-8.89-8.64q-6.85-4.05-16.77-4.06-9.13,0-15.49,3.81a25.58,25.58,0,0,0-9.4,9.14,32.09,32.09,0,0,0-3.81,15.37,33.14,33.14,0,0,0,4.57,16.38q6.35,10.94,27.18,22.61,28.2,16.26,37.09,31.75a52.4,52.4,0,0,1,7.36,26.67A49,49,0,0,1,562.42,267a41.89,41.89,0,0,1-15.75,15.49Q535.5,289.09,519.75,289.09Z"/>
        </g>
      </g>
    </g>
  </g>
</svg>
