<svg xmlns="http://www.w3.org/2000/svg" width="400" height="320" viewBox="0 0 400 320">
  <defs>
    <style>
      .cls-1 {
        fill: #333;
      }

      .cls-2 {
        fill: #00d16c;
      }
    </style>
  </defs>
  <title>CAPS LOCK LOGO</title>
  <g id="Layer_2" data-name="Layer 2">
    <g id="Layer_1-2" data-name="Layer 1">
      <g>
        <path class="cls-1" d="M384,0H16L0,16V304l16,16H384l16-16V16Zm0,288-16,16H32L16,288V32.25L32,16H368l16,16.25Z"/>
        <circle class="cls-2" cx="342" cy="256.25" r="16"/>
        <path class="cls-1" d="M75,146.32a28.16,28.16,0,0,1-14.52-3.56,22.25,22.25,0,0,1-8.58-8.58q-3.82-6.47-3.83-15.71V75q0-9.23,3.83-15.7a22.25,22.25,0,0,1,8.58-8.58A28.16,28.16,0,0,1,75,47.19a28.16,28.16,0,0,1,14.52,3.57,22.91,22.91,0,0,1,8.71,8.71,25.87,25.87,0,0,1,3.3,9.24l-13.2,2.77a17.16,17.16,0,0,0-1.85-5.81A12.59,12.59,0,0,0,75,59.34a13.77,13.77,0,0,0-6.73,1.58,13.25,13.25,0,0,0-4.49,4.62A18.48,18.48,0,0,0,61.54,75v43.43A18.52,18.52,0,0,0,63.78,128a13.34,13.34,0,0,0,4.49,4.62A13.88,13.88,0,0,0,75,134.18a12.58,12.58,0,0,0,11.48-6.34,17,17,0,0,0,1.85-5.8l13.2,2.77a25.94,25.94,0,0,1-3.3,9.24,23,23,0,0,1-8.71,8.71A28.16,28.16,0,0,1,75,146.32Z"/>
        <path class="cls-1" d="M115.13,145.27V135.5q0-26.27,19.14-87.25h13.46q19.14,61,19.14,87.25v9.77H153.41V135.5a126.6,126.6,0,0,0-.79-13.07H129.38a126.6,126.6,0,0,0-.79,13.07v9.77Zm35.77-35q-3-18.89-9.9-45.54-6.87,26.66-9.9,45.54Z"/>
        <path class="cls-1" d="M183,145.27v-97h23.76a27.94,27.94,0,0,1,14.38,3.56,23.43,23.43,0,0,1,8.85,9q4,6.74,4,16.5t-4,16.63a24.74,24.74,0,0,1-8.85,9,28.71,28.71,0,0,1-14.38,3.43h-10.3v38.94Zm13.46-51.09h10.3a12.91,12.91,0,0,0,6.66-1.65A12.11,12.11,0,0,0,218,87.72a19.72,19.72,0,0,0,2.5-10.43A19.69,19.69,0,0,0,218,66.86,12.14,12.14,0,0,0,213.4,62a13,13,0,0,0-6.66-1.65h-10.3Z"/>
        <path class="cls-1" d="M272.6,146.32q-9.11,0-15.44-3.69a21.58,21.58,0,0,1-7.92-7.79,22,22,0,0,1-2.77-10l13.33-2-.13.26v.27a10.85,10.85,0,0,0,1.45,5.14,10.59,10.59,0,0,0,4,4,15,15,0,0,0,7.52,1.72,13.94,13.94,0,0,0,7-1.72,11.29,11.29,0,0,0,4.09-4.09,13.48,13.48,0,0,0,1.72-6.73,15.42,15.42,0,0,0-2.25-7.92q-3-5.28-13.33-11.35Q255.45,93.92,251,86a27.15,27.15,0,0,1-3.83-13.86,25.89,25.89,0,0,1,3.43-13.2,22.44,22.44,0,0,1,8.32-8.18,28.11,28.11,0,0,1,14.52-3.57q9.11,0,15.44,3.7a21.73,21.73,0,0,1,7.92,7.79,22.08,22.08,0,0,1,2.77,10l-13.33,2,.13-.27v-.26A11,11,0,0,0,284.88,65a10.73,10.73,0,0,0-4-4,15.15,15.15,0,0,0-7.52-1.71,14,14,0,0,0-7,1.71,11.37,11.37,0,0,0-4.09,4.09,13.41,13.41,0,0,0-1.72,6.74,15.47,15.47,0,0,0,2.25,7.92q3,5.28,13.33,11.35Q290.55,99.6,295,107.52a27.15,27.15,0,0,1,3.83,13.86,25.89,25.89,0,0,1-3.43,13.2,22.52,22.52,0,0,1-8.32,8.18A28.13,28.13,0,0,1,272.6,146.32Z"/>
        <path class="cls-1" d="M52.69,273.27v-97H66.16v84.87h35.77v12.15Z"/>
        <path class="cls-1" d="M141,274.32a36.94,36.94,0,0,1-5.41-.39,27.74,27.74,0,0,1-9.11-3,25.42,25.42,0,0,1-8.71-8.84,30.86,30.86,0,0,1-3.7-15.58V203a30.82,30.82,0,0,1,3.7-15.57,25.37,25.37,0,0,1,8.71-8.85A29.15,29.15,0,0,1,141,175.19a29.15,29.15,0,0,1,14.52,3.43,25.37,25.37,0,0,1,8.71,8.85,30.93,30.93,0,0,1,3.7,15.57v43.43a31,31,0,0,1-3.7,15.58,25.42,25.42,0,0,1-8.71,8.84A29,29,0,0,1,141,274.32Zm0-12.14a13.88,13.88,0,0,0,6.73-1.58,13.34,13.34,0,0,0,4.49-4.62,18.52,18.52,0,0,0,2.24-9.51V203a18.48,18.48,0,0,0-2.24-9.5,13.25,13.25,0,0,0-4.49-4.62,15.12,15.12,0,0,0-13.46,0,13.25,13.25,0,0,0-4.49,4.62,18.48,18.48,0,0,0-2.24,9.5v43.43a18.52,18.52,0,0,0,2.24,9.51,13.34,13.34,0,0,0,4.49,4.62A13.88,13.88,0,0,0,141,262.18Z"/>
        <path class="cls-1" d="M207,274.32a28.16,28.16,0,0,1-14.52-3.56,22.25,22.25,0,0,1-8.58-8.58q-3.83-6.47-3.83-15.71V203q0-9.22,3.83-15.7a22.25,22.25,0,0,1,8.58-8.58,31.31,31.31,0,0,1,29,0,22.91,22.91,0,0,1,8.71,8.71,25.87,25.87,0,0,1,3.3,9.24l-13.2,2.77a17.16,17.16,0,0,0-1.85-5.81A12.59,12.59,0,0,0,207,187.34a13.77,13.77,0,0,0-6.73,1.58,13.25,13.25,0,0,0-4.49,4.62,18.48,18.48,0,0,0-2.24,9.5v43.43a18.52,18.52,0,0,0,2.24,9.51,13.34,13.34,0,0,0,4.49,4.62,13.88,13.88,0,0,0,6.73,1.58,12.58,12.58,0,0,0,11.48-6.34,17,17,0,0,0,1.85-5.8l13.2,2.77a25.94,25.94,0,0,1-3.3,9.24,23,23,0,0,1-8.71,8.71A28.16,28.16,0,0,1,207,274.32Z"/>
        <path class="cls-1" d="M247.13,273.27v-97h13.46v41.18a184.26,184.26,0,0,0,18.09-25.34q5.94-10.31,6.07-15.84h14.12q0,6.21-6.73,17.95a186.12,186.12,0,0,1-12.8,19q20.58,44.88,20.59,60.06H286.46q0-13.06-15.7-49.24-4.75,5.55-10.17,11.49v37.75Z"/>
      </g>
    </g>
  </g>
</svg>
